<?xml version="1.0" encoding="UTF-8" standalone="no"?>
<!-- Generator: Adobe Illustrator 16.0.0, SVG Export Plug-In . SVG Version: 6.00 Build 0)  -->

<svg
   version="1.2"
   x="0px"
   y="0px"
   width="390px"
   height="390.139px"
   viewBox="-24.967 -38.128 390 390.139"
   xml:space="preserve"
   id="svg2"
   sodipodi:docname="logo.svg"
   inkscape:version="1.4.4 (dcaf3e7, 2026-05-05)"
   xmlns:inkscape="http://www.inkscape.org/namespaces/inkscape"
   xmlns:sodipodi="http://sodipodi.sourceforge.net/DTD/sodipodi-0.dtd"
   xmlns="http://www.w3.org/2000/svg"
   xmlns:svg="http://www.w3.org/2000/svg"><defs
   id="defs2" /><sodipodi:namedview
   id="namedview2"
   pagecolor="#505050"
   bordercolor="#eeeeee"
   borderopacity="1"
   inkscape:showpageshadow="0"
   inkscape:pageopacity="0"
   inkscape:pagecheckerboard="0"
   inkscape:deskcolor="#505050"
   inkscape:zoom="4"
   inkscape:cx="185.25"
   inkscape:cy="168.125"
   inkscape:window-width="1920"
   inkscape:window-height="1017"
   inkscape:window-x="1912"
   inkscape:window-y="-8"
   inkscape:window-maximized="1"
   inkscape:current-layer="House" />
<g
   id="House"
   style="stroke:#ffffff;stroke-opacity:1">
	<path
   id="House-Outline"
   fill="none"
   stroke="#ffffff"
   stroke-miterlimit="10"
   d="m 93.521,134.436 58.638,-47.691 c 2.451,-1.879 3.789,-1.896 6.229,0.082 13.2,10.707 26.387,21.429 39.578,32.148 5.586,4.54 11.034,9.249 16.745,13.631 1.94,1.489 1.521,1.305 3.773,1.78 l 43.372,9.399 c 2.563,0.636 3.793,2.278 3.34,4.425 -0.444,2.102 -2.502,3.511 -4.795,2.728 -2.549,-0.871 -4.205,-0.021 -6.016,1.62 -3.796,3.436 -7.711,6.742 -11.664,9.999 -1.203,0.99 -1.644,2.051 -1.633,3.568 0.047,7.816 0.048,15.633 -0.029,23.449 -0.021,1.752 -0.056,12.698 1.82,12.515 3.08,0 3.592,-0.016 5.797,-0.016 2.451,0 2.459,0 2.459,1.163 0,1.071 -0.012,1.093 -2.457,1.093 L 94.013,204.317 c -1.181,0 -1.193,0.037 -1.193,-1.102 0,-1.127 0.012,-1.131 1.383,-1.131 1.466,0 1.75,-0.012 3.473,-0.012 0.001,-20.922 -0.107,-20.975 -0.107,-61.966 -5.664,-1.033 -4.28,-5.47 -4.048,-5.67 z M 159.54,97.365 c -4.155,-3.436 -4.198,-3.663 -8.185,-0.3 -3.625,3.06 -38.059,31.028 -50.465,40.994 -2.085,1.676 -1.87,63.88 -1,63.88 h 14.722 c 1.449,0 1.561,-5.696 1.533,-8.354 -0.124,-11.637 -0.095,-23.275 -0.095,-34.913 0,-2.4 0.985,-3.36 3.325,-3.36 6.731,0 13.189,-0.033 19.801,-0.033 3.694,0 3.958,1.208 3.958,4.558 v 39.891 c 0,2.327 0.687,2.205 4.455,2.205 l 62.062,0.053 c 3.342,0.016 3.414,0.073 3.408,-3.348 -0.004,-2.168 0.012,-38.592 -0.006,-54.636 -0.012,-3.449 0.348,-2.772 -0.959,-3.864 -2.665,-2.222 -47.175,-38.325 -52.554,-42.773 m 71.59,47.754 c -4.53,-1.03 -9.062,-2.069 -13.592,-3.107 -2.479,-0.567 -2.008,-0.22 -2.008,3.559 -0.048,14.817 -0.272,39.176 -0.14,53.085 0.036,3.777 0.786,3.434 2.411,3.434 5.203,0 10.188,-0.016 14.703,0 0.518,0 1.219,-0.516 1.219,-1.703 l 0.113,-52.614 c 0.011,-2.045 -0.329,-2.2 -2.706,-2.654 m -90.091,15.696 c 0,-2.786 -0.764,-3.296 -3.164,-3.248 -5.466,0.11 -10.938,0.12 -16.403,0.009 -2.764,0 -3.389,0.779 -3.389,3.357 0,11.5 0.031,27.313 0.031,38.469 0,2.313 0.656,2.734 2.873,2.734 h 16.924 c 2.427,0.039 3.16,-0.843 3.119,-3.126 z m 94.946,39.601 c 0.003,1.008 -0.151,1.845 1.411,1.845 1.719,-0.016 1.568,-0.797 1.568,-1.901 0.018,-13.52 0.015,-37.867 0.012,-51.387 -0.001,-1.23 0.07,-2.658 -1.641,-2.71 -1.418,-0.013 -1.342,1.515 -1.351,2.507 v 51.646 z m 5.236,-41.393 c 0.017,0.169 -0.187,0.789 0.396,1.056 0.577,0.267 0.946,-0.263 1.325,-0.576 3.238,-2.706 6.474,-5.419 9.692,-8.146 0.435,-0.366 1.146,-0.713 0.777,-1.431 -0.301,-0.584 -1.021,-0.55 -1.611,-0.648 -0.861,-0.145 -1.479,0.323 -2.082,0.83 -2.504,2.106 -5.008,4.215 -7.518,6.315 -0.713,0.596 -1.036,1.352 -0.979,2.6 m 6.547,-10.563 c -1.899,-0.429 -3.407,-0.752 -4.907,-1.109 -0.865,-0.206 -1.624,-0.201 -1.621,0.942 0.004,1.767 -0.009,3.294 0,5.624 2.336,-1.74 4.311,-3.273 6.528,-5.457 z"
   sodipodi:nodetypes="ccccccccccccccssccssccccccsscsssssccccccccccscccccccsssccccccccccccccccccccccccc"
   style="stroke:#ffffff;stroke-opacity:1;stroke-miterlimit:21;fill:#ffffff;fill-opacity:1" />
	<path
   id="House-Windows"
   fill="#FFFFFF"
   d="M176.341,194.261c-5.383,0-10.766-0.048-16.146,0.023   c-2.187,0.028-3.092-0.73-3.05-3.042c0.119-6.597,0.089-26.305,0.016-32.9c-0.024-2.195,0.767-3.118,3.037-3.104   c10.504,0.068,21.008,0.072,31.512,0.011c2.269-0.014,3.053,0.903,3.027,3.106c-0.078,6.685-0.048,26.478-0.016,33.16   c0.01,1.755-0.447,2.765-2.502,2.729c-5.293-0.096-10.588-0.032-15.881-0.032L176.341,194.261z M174.835,181.225h-0.021   c0-2.855-0.028-18.822,0.013-21.679c0.019-1.38-0.467-2.092-1.951-2.076c-3.81,0.039-7.619,0.031-11.428-0.004   c-1.4-0.013-2.064,0.539-2.06,1.986c0.02,5.888,0.019,24.885-0.025,30.771c-0.011,1.344,0.542,1.855,1.85,1.846   c3.896-0.027,7.792-0.028,11.688,0.018c1.452,0.017,1.986-0.592,1.953-2.029C174.789,187.115,174.835,184.169,174.835,181.225    M177.076,181.557h-0.035c0,2.686,0.074,5.372-0.025,8.053c-0.064,1.711,0.395,2.555,2.292,2.498   c3.636-0.098,7.273-0.105,10.909-0.021c1.674,0.035,2.314-0.566,2.295-2.258c-0.063-5.716-0.049-24.538-0.002-30.253   c0.014-1.385-0.391-2.09-1.895-2.072c-3.896,0.041-7.793,0.039-11.688-0.006c-1.525-0.018-1.89,0.772-1.866,2.121   C177.11,162.561,177.076,178.613,177.076,181.557 M155.156,144.366c-8.575,0.102-15.868-6.93-16.047-15.474   c-0.182-8.642,7.23-16.253,15.879-16.308c8.724-0.056,15.896,7.191,15.976,16.14C171.039,137.21,163.91,144.263,155.156,144.366    M141.566,128.607c-0.389,7.588,6.81,13.521,13.283,13.564c7.665,0.052,13.732-5.877,13.803-13.299   c0.074-7.755-5.61-13.666-13.192-13.72C147.257,115.097,141.604,120.57,141.566,128.607"
   style="stroke:#ffffff;stroke-opacity:1;fill:#ffffff;fill-opacity:1" />
	<path
   id="House-wifi"
   fill="#FFFFFF"
   d="M117.063,71.534c-0.086,0.6-0.177,1.199-0.258,1.801c-0.087,0.645-0.166,1.291-0.249,1.948   c-6.395-0.735-12.2,0.731-17.289,4.655c-5.081,3.917-7.977,9.148-8.9,15.528c-0.648-0.091-1.283-0.186-1.919-0.267   c-0.61-0.078-1.854-0.241-1.865-0.256c0.094-0.557,0.177-1.116,0.284-1.671c1.068-5.622,3.892-10.76,8.065-14.676   c0.399-0.375,0.81-0.736,1.215-1.103l1.571-1.21c0.293-0.188,0.587-0.369,0.875-0.563c2.17-1.439,4.539-2.55,7.033-3.296   c2.539-0.769,5.138-1.167,7.789-1.142c1.207,0.012,2.412,0.136,3.617,0.208L117.063,71.534z M115.155,101.149   c-0.485,0.211-0.976,0.391-1.518,0.401c-1.218,0.025-2.394-0.727-2.872-1.855c-0.493-1.157-0.25-2.489,0.613-3.357   c1.205-1.212,3.1-1.253,4.32-0.094c1.225,1.158,1.285,3.087,0.137,4.32c-0.027,0.029-0.041,0.071-0.06,0.107L115.155,101.149z    M97.958,96.402c0.627-4.254,2.565-7.774,5.992-10.411c3.426-2.637,7.327-3.608,11.561-3.129l0.503-3.762   c-11.076-1.519-20.731,6.719-21.808,16.822L97.958,96.402z M115.042,86.694c-6.285-0.984-12.551,3.699-13.254,10.174l3.758,0.499   c0.492-4.057,4.328-7.537,9.009-6.93L115.042,86.694z"
   style="stroke:#ffffff;stroke-opacity:1;stroke-miterlimit:10" />
</g>
<g
   id="Inner-Hex"
   style="stroke:#ffffff;stroke-opacity:1">
	<path
   fill="none"
   stroke="#FFFFFF"
   stroke-width="4"
   stroke-miterlimit="10"
   d="M250.048,295.909l-160.633,0.292L8.843,157.236   L88.906,17.977l160.633-0.294l80.572,138.965L250.048,295.909z"
   id="path1"
   style="stroke:#ffffff;stroke-opacity:1" />
<animateTransform
   repeatCount="indefinite"
   dur="15s"
   to="-360 170.033 156.942"
   from="0 170.033 156.942"
   type="rotate"
   attributeName="transform" /></g>
<g
   id="Outer-Hex"
   style="">
	<path
   fill="none"
   stroke="#FFFFFF"
   stroke-width="4"
   stroke-miterlimit="10"
   d="M336.238,60.257l0.35,192.76L169.83,349.702   L2.719,253.628L2.366,60.869l166.758-96.688L336.238,60.257z"
   id="path2"
   style="stroke:#ffffff;stroke-opacity:1" />
<animateTransform
   repeatCount="indefinite"
   dur="15s"
   to="360 170.033 156.942"
   from="0 170.033 156.942"
   type="rotate"
   attributeName="transform" /></g>
</svg>
